
<svg version="1.0" xmlns="http://www.w3.org/2000/svg"
 width="57.000000pt" height="53.000000pt" viewBox="0 0 57.000000 53.000000"
 preserveAspectRatio="xMidYMid meet">

<g transform="translate(0.000000,53.000000) scale(0.100000,-0.100000)"
fill="#83B8AE" stroke="none">
<path d="M0 265 l0 -265 285 0 285 0 0 265 0 265 -285 0 -285 0 0 -265z m193
142 c26 -20 44 -48 70 -114 32 -81 36 -86 45 -63 19 49 80 90 134 90 56 0 64
-11 44 -62 -58 -148 -104 -198 -183 -198 -42 0 -103 28 -130 61 -19 24 -123
300 -117 311 12 19 101 3 137 -25z"/>
</g>
</svg>
